name Walk8.mot
datacolumns 19
datarows 20
range 2.95600000 2.97500000
endheader

                time	   L_ground_force_vx	   L_ground_force_vy	   L_ground_force_vz	   L_ground_force_px	   L_ground_force_py	   L_ground_force_pz	   R_ground_force_vx	   R_ground_force_vy	   R_ground_force_vz	   R_ground_force_px	   R_ground_force_py	   R_ground_force_pz	   L_ground_torque_x	   L_ground_torque_y	   L_ground_torque_z	   R_ground_torque_x	   R_ground_torque_y	   R_ground_torque_z	
          2.95600000	          7.03222767	         40.95026911	          0.00401266	          0.00374160	          0.00000000	         -0.00109224	          0.00000000	          0.00000000	          0.00000000	          0.00000000	          0.00000000	          0.00000000	          0.00000000	          0.01166864	          0.00000000	          0.00000000	         -0.00000000	          0.00000000	
          2.95700000	          7.42295882	         45.30649530	          0.00020838	         -0.01262834	          0.00000000	         -0.00373187	          0.00000000	          0.00000000	          0.00000000	          0.00000000	          0.00000000	          0.00000000	          0.00000000	          0.00794844	          0.00000000	          0.00000000	         -0.00000000	          0.00000000	
          2.95800000	          7.78772207	         49.79953081	         -0.01197303	         -0.02894080	          0.00000000	         -0.00636262	          0.00000000	          0.00000000	          0.00000000	          0.00000000	          0.00000000	          0.00000000	          0.00000000	          0.00449147	          0.00000000	          0.00000000	         -0.00000000	          0.00000000	
          2.95900000	          8.12321889	         54.42512671	         -0.03310261	         -0.04515176	          0.00000000	         -0.00897730	          0.00000000	          0.00000000	          0.00000000	          0.00000000	          0.00000000	          0.00000000	          0.00000000	          0.00132402	          0.00000000	          0.00000000	         -0.00000000	          0.00000000	
          2.96000000	          8.42602945	         59.17825588	         -0.06375113	         -0.06121670	          0.00000000	         -0.01156862	          0.00000000	          0.00000000	          0.00000000	          0.00000000	          0.00000000	          0.00000000	          0.00000000	         -0.00152765	          0.00000000	          0.00000000	         -0.00000000	          0.00000000	
          2.96100000	          8.69261260	         64.05305355	         -0.10448743	         -0.07709083	          0.00000000	         -0.01412921	          0.00000000	          0.00000000	          0.00000000	          0.00000000	          0.00000000	          0.00000000	          0.00000000	         -0.00403746	          0.00000000	          0.00000000	         -0.00000000	          0.00000000	
          2.96200000	          8.91932461	         69.04280163	         -0.15587180	         -0.09273026	          0.00000000	         -0.01665180	          0.00000000	          0.00000000	          0.00000000	          0.00000000	          0.00000000	          0.00000000	          0.00000000	         -0.00617995	          0.00000000	          0.00000000	         -0.00000000	          0.00000000	
          2.96300000	          9.10246016	         74.13996848	         -0.21844392	         -0.10809412	          0.00000000	         -0.01912956	          0.00000000	          0.00000000	          0.00000000	          0.00000000	          0.00000000	          0.00000000	          0.00000000	         -0.00793115	          0.00000000	          0.00000000	         -0.00000000	          0.00000000	
          2.96400000	          9.23830092	         79.33627548	         -0.29270908	         -0.12314575	          0.00000000	         -0.02155629	          0.00000000	          0.00000000	          0.00000000	          0.00000000	          0.00000000	          0.00000000	          0.00000000	         -0.00926932	          0.00000000	          0.00000000	         -0.00000000	          0.00000000	
          2.96500000	          9.32316256	         84.62277514	         -0.37912506	         -0.13785289	          0.00000000	         -0.02392646	          0.00000000	          0.00000000	          0.00000000	          0.00000000	          0.00000000	          0.00000000	          0.00000000	         -0.01017522	          0.00000000	          0.00000000	         -0.00000000	          0.00000000	
          2.96600000	          9.35344260	         89.98995518	         -0.47808828	         -0.15218740	          0.00000000	         -0.02623521	          0.00000000	          0.00000000	          0.00000000	          0.00000000	          0.00000000	          0.00000000	          0.00000000	         -0.01063187	          0.00000000	          0.00000000	         -0.00000000	          0.00000000	
          2.96700000	          9.32567206	         95.42788155	         -0.58991832	         -0.16612496	          0.00000000	         -0.02847832	          0.00000000	          0.00000000	          0.00000000	          0.00000000	          0.00000000	          0.00000000	          0.00000000	         -0.01062394	          0.00000000	          0.00000000	         -0.00000000	          0.00000000	
          2.96800000	          9.23657137	        100.92638259	         -0.71484085	         -0.17964490	          0.00000000	         -0.03065218	          0.00000000	          0.00000000	          0.00000000	          0.00000000	          0.00000000	          0.00000000	          0.00000000	         -0.01013699	          0.00000000	          0.00000000	         -0.00000000	          0.00000000	
          2.96900000	          9.08311066	        106.47526943	         -0.85296942	         -0.19272989	          0.00000000	         -0.03275380	          0.00000000	          0.00000000	          0.00000000	          0.00000000	          0.00000000	          0.00000000	          0.00000000	         -0.00915661	          0.00000000	          0.00000000	         -0.00000000	          0.00000000	
          2.97000000	          8.86257370	        112.06457805	         -1.00428757	         -0.20536575	          0.00000000	         -0.03478075	          0.00000000	          0.00000000	          0.00000000	          0.00000000	          0.00000000	          0.00000000	          0.00000000	         -0.00766777	          0.00000000	          0.00000000	         -0.00000000	          0.00000000	
          2.97100000	          8.57262238	        117.68481120	         -1.16863326	         -0.21754124	          0.00000000	         -0.03673113	          0.00000000	          0.00000000	          0.00000000	          0.00000000	          0.00000000	          0.00000000	          0.00000000	         -0.00565437	          0.00000000	          0.00000000	         -0.00000000	          0.00000000	
          2.97200000	          8.21135781	        123.32715488	         -1.34568764	         -0.22924782	          0.00000000	         -0.03860357	          0.00000000	          0.00000000	          0.00000000	          0.00000000	          0.00000000	          0.00000000	          0.00000000	         -0.00309914	          0.00000000	          0.00000000	         -0.00000000	          0.00000000	
          2.97300000	          7.77737297	        128.98364678	         -1.53497035	         -0.24047949	          0.00000000	         -0.04039714	          0.00000000	          0.00000000	          0.00000000	          0.00000000	          0.00000000	          0.00000000	          0.00000000	          0.00001604	          0.00000000	          0.00000000	         -0.00000000	          0.00000000	
          2.97400000	          7.26979273	        134.64728245	         -1.73584203	         -0.25123257	          0.00000000	         -0.04211136	          0.00000000	          0.00000000	          0.00000000	          0.00000000	          0.00000000	          0.00000000	          0.00000000	          0.00370955	          0.00000000	          0.00000000	         -0.00000000	          0.00000000	
          2.97500000	          6.68829845	        140.31205494	         -1.94751400	         -0.26150555	          0.00000000	         -0.04374613	          0.00000000	          0.00000000	          0.00000000	          0.00000000	          0.00000000	          0.00000000	          0.00000000	          0.00799924	          0.00000000	          0.00000000	         -0.00000000	          0.00000000	
